<svg viewBox="0 0 240 240" width="240" height="240" xmlns="http://www.w3.org/2000/svg">
<style>
  .urn { fill:#f4efe4; stroke:#1a1a1a; stroke-width:2; }
  .rim { fill:none; stroke:#1a1a1a; stroke-width:2; }
  .r { fill:#c94b4b; stroke:#1a1a1a; stroke-width:1; }
  .b { fill:#3f6fb5; stroke:#1a1a1a; stroke-width:1; }
  .data { stroke:#1a1a1a; stroke-width:1.5; }
</style>

<defs>
  <marker id="arrowhead" markerWidth="8" markerHeight="8" refX="6" refY="4" orient="auto">
    <path d="M0,0 L8,4 L0,8 Z" fill="#6a6a6a"/>
  </marker>
</defs>

<!-- outer data balls -->
<circle class="r data" cx="90" cy="150" r="12"/>
<circle class="b data" cx="120" cy="150" r="12"/>
<circle class="r data" cx="150" cy="150" r="12"/>
<circle class="r data" cx="180" cy="150" r="12"/>
<circle class="b data" cx="210" cy="150" r="12"/>

<line x1="20" y1="125" x2="240" y2="125"
      stroke="#1a1a1a"
      stroke-width="2"
      stroke-dasharray="6 4"/>


<text x="10" y="120" font-size="10" fill="#6a6a6a">theories</text>
<text x="10" y="135" font-size="10" fill="#6a6a6a">data</text>

<!-- urns -->
<g transform="translate(10,38) scale(0.7)">
  <path class="urn" d="M30 28 Q32 20 40 20 L80 20 Q88 20 90 28 L82 95 Q80 105 70 108 L50 108 Q40 105 38 95 Z"/>
  <ellipse class="rim" cx="60" cy="26" rx="22" ry="4"/>

  <circle class="r" cx="52" cy="51" r="7"/>
  <circle class="r" cx="68" cy="51" r="7"/>

  <circle class="r" cx="45" cy="66" r="7"/>
  <circle class="r" cx="60" cy="66" r="7"/>
  <circle class="b" cx="75" cy="66" r="7"/>

  <circle class="r" cx="45" cy="82" r="7"/>
  <circle class="r" cx="60" cy="82" r="7"/>
  <circle class="r" cx="75" cy="82" r="7"/>

  <circle class="b" cx="52" cy="97" r="7"/>
  <circle class="r" cx="67" cy="97" r="7"/>
</g>

<g transform="translate(60,38) scale(0.7)">
  <path class="urn" d="M30 28 Q32 20 40 20 L80 20 Q88 20 90 28 L82 95 Q80 105 70 108 L50 108 Q40 105 38 95 Z"/>
  <ellipse class="rim" cx="60" cy="26" rx="22" ry="4"/>

  <circle class="r" cx="52" cy="51" r="7"/>
  <circle class="r" cx="68" cy="51" r="7"/>

  <circle class="b" cx="45" cy="66" r="7"/>
  <circle class="r" cx="60" cy="66" r="7"/>
  <circle class="b" cx="75" cy="66" r="7"/>

  <circle class="r" cx="45" cy="82" r="7"/>
  <circle class="r" cx="60" cy="82" r="7"/>
  <circle class="r" cx="75" cy="82" r="7"/>

  <circle class="b" cx="52" cy="97" r="7"/>
  <circle class="r" cx="67" cy="97" r="7"/>
</g>

<g transform="translate(110,38) scale(0.7)">
  <path class="urn" d="M30 28 Q32 20 40 20 L80 20 Q88 20 90 28 L82 95 Q80 105 70 108 L50 108 Q40 105 38 95 Z"/>
  <ellipse class="rim" cx="60" cy="26" rx="22" ry="4"/>

  <circle class="r" cx="52" cy="51" r="7"/>
  <circle class="r" cx="68" cy="51" r="7"/>

  <circle class="b" cx="45" cy="66" r="7"/>
  <circle class="r" cx="60" cy="66" r="7"/>
  <circle class="b" cx="75" cy="66" r="7"/>

  <circle class="r" cx="45" cy="82" r="7"/>
  <circle class="b" cx="60" cy="82" r="7"/>
  <circle class="r" cx="75" cy="82" r="7"/>

  <circle class="b" cx="52" cy="97" r="7"/>
  <circle class="r" cx="67" cy="97" r="7"/>
</g>

<g transform="translate(160,38) scale(0.7)">
  <path class="urn" d="M30 28 Q32 20 40 20 L80 20 Q88 20 90 28 L82 95 Q80 105 70 108 L50 108 Q40 105 38 95 Z"/>
  <ellipse class="rim" cx="60" cy="26" rx="22" ry="4"/>

  <circle class="b" cx="52" cy="51" r="7"/>
  <circle class="r" cx="68" cy="51" r="7"/>

  <circle class="b" cx="45" cy="66" r="7"/>
  <circle class="r" cx="60" cy="66" r="7"/>
  <circle class="b" cx="75" cy="66" r="7"/>

  <circle class="r" cx="45" cy="82" r="7"/>
  <circle class="b" cx="60" cy="82" r="7"/>
  <circle class="r" cx="75" cy="82" r="7"/>

  <circle class="b" cx="52" cy="97" r="7"/>
  <circle class="r" cx="67" cy="97" r="7"/>
</g>

</svg>