<svg xmlns="http://www.w3.org/2000/svg" viewBox="0 0 64 64" width="64" height="64" aria-label="book">
  <g transform="translate(8,8) scale(0.75)" fill="none" stroke-linecap="round" stroke-linejoin="round">

    <!-- left page block -->
    <path d="M14 18
             C20 15, 26 15, 31 18
             L31 46
             C26 43, 20 43, 14 46
             Z"
          fill="#efe3c7"
          stroke="#5a4632"
          stroke-width="2.2"/>

    <!-- right page block -->
    <path d="M33 18
             C38 15, 44 15, 50 18
             L50 46
             C44 43, 38 43, 33 46
             Z"
          fill="#efe3c7"
          stroke="#5a4632"
          stroke-width="2.2"/>

    <!-- spine -->
    <path d="M32 17 L32 47"
          stroke="#5a4632"
          stroke-width="2"/>

    <!-- page lines left -->
    <path d="M18 24 C22 22.8, 25 22.8, 29 24"
          stroke="#8a6a49"
          stroke-width="1.2"/>
    <path d="M18 29 C22 27.8, 25 27.8, 29 29"
          stroke="#8a6a49"
          stroke-width="1.2"/>
    <path d="M18 34 C22 32.8, 25 32.8, 29 34"
          stroke="#8a6a49"
          stroke-width="1.2"/>

    <!-- page lines right -->
    <path d="M35 24 C39 22.8, 42 22.8, 46 24"
          stroke="#8a6a49"
          stroke-width="1.2"/>
    <path d="M35 29 C39 27.8, 42 27.8, 46 29"
          stroke="#8a6a49"
          stroke-width="1.2"/>
    <path d="M35 34 C39 32.8, 42 32.8, 46 34"
          stroke="#8a6a49"
          stroke-width="1.2"/>

    <!-- bookmark -->
    <path d="M30.5 17 L30.5 25 L28.5 23.5 L26.5 25 L26.5 17"
          fill="#b06a4e"
          stroke="#5a4632"
          stroke-width="1.3"/>

  </g>
</svg>