<svg xmlns="http://www.w3.org/2000/svg" viewBox="0 0 48 48" width="48" height="48" aria-label="potion bottle">
  <g fill="none" stroke-linecap="round" stroke-linejoin="round">
    <!-- cork -->
    <path d="M21 10
             C21 8.8, 27 8.8, 27 10
             L26 14
             C26 15, 22 15, 22 14
             Z"
          fill="#9a6a3a"
          stroke="#5a4632"
          stroke-width="1.4"/>

    <!-- neck -->
    <path d="M22 14
             L22 18
             C22 19.5, 20 21, 18.5 23.5
             C16.5 26.5, 16 29, 16 31
             C16 36, 19.5 39, 24 39
             C28.5 39, 32 36, 32 31
             C32 29, 31.5 26.5, 29.5 23.5
             C28 21, 26 19.5, 26 18
             L26 14"
          fill="#b88ad6"
          stroke="#5a4632"
          stroke-width="2"/>

    <!-- liquid line -->
    <path d="M17.5 28
             C20 27.2, 22 28.8, 24 28.2
             C26 27.7, 28 26.8, 30.5 28"
          stroke="#7b5aa6"
          stroke-width="1.4"/>

    <!-- bubbles -->
    <circle cx="21" cy="31" r="1.1"
            fill="#e8d8f7"
            stroke="#7b5aa6"
            stroke-width="0.8"/>
    <circle cx="26.5" cy="33" r="0.9"
            fill="#e8d8f7"
            stroke="#7b5aa6"
            stroke-width="0.8"/>
    <circle cx="24.5" cy="25.5" r="0.7"
            fill="#e8d8f7"
            stroke="#7b5aa6"
            stroke-width="0.7"/>

    <!-- glass highlight -->
    <path d="M20 20
             C19 23, 19 26, 20 33"
          stroke="#f2ebfa"
          stroke-width="1.2"
          opacity="0.9"/>
  </g>
</svg>